<?xml version="1.0" standalone="no"?>
<!DOCTYPE svg PUBLIC "-//W3C//DTD SVG 20010904//EN"
 "http://www.w3.org/TR/2001/REC-SVG-20010904/DTD/svg10.dtd">
<svg version="1.0" xmlns="http://www.w3.org/2000/svg"
 width="500.000000pt" height="500.000000pt" viewBox="0 0 500.000000 500.000000"
 preserveAspectRatio="xMidYMid meet">
<metadata>
Created by potrace 1.16, written by Peter Selinger 2001-2019
</metadata>
<g transform="translate(0.000000,500.000000) scale(0.100000,-0.100000)"
fill="#000000" stroke="none">
<path d="M3660 2435 c0 -52 -3 -95 -6 -95 -3 0 -17 9 -31 20 -35 27 -114 27
-158 0 -47 -29 -69 -81 -69 -165 -1 -119 50 -185 142 -185 44 0 102 23 102 40
0 6 5 10 10 10 6 0 10 -11 10 -25 0 -23 4 -25 45 -25 l45 0 0 260 0 260 -45 0
-45 0 0 -95z m-56 -135 c53 -20 73 -117 37 -177 -32 -51 -100 -53 -138 -4 -7
9 -12 43 -12 76 0 61 9 83 44 103 25 14 37 15 69 2z"/>
<path d="M2610 2484 c-46 -20 -77 -50 -103 -99 -17 -32 -21 -58 -21 -130 0
-72 4 -98 21 -130 42 -80 105 -115 205 -115 75 0 133 26 166 73 30 45 28 60
-13 80 -35 17 -36 17 -45 -7 -4 -13 -21 -33 -37 -46 -23 -18 -37 -21 -80 -18
-85 7 -123 58 -123 163 0 108 46 165 132 165 44 0 54 -4 84 -34 l35 -35 34 21
c19 11 35 22 35 25 0 19 -50 68 -84 84 -51 23 -156 25 -206 3z"/>
<path d="M1402 2455 c-35 -7 -67 -16 -72 -21 -7 -8 -150 -409 -150 -421 0 -2
21 -3 47 -1 l46 3 20 58 19 57 96 0 97 0 18 -60 17 -60 50 0 49 0 -69 198
c-93 266 -91 262 -98 261 -4 -1 -35 -7 -70 -14z"/>
<path d="M1785 2366 c-42 -18 -83 -69 -91 -112 -10 -57 1 -142 22 -171 37 -50
70 -67 137 -71 74 -4 122 17 150 65 l18 32 -32 17 c-31 15 -33 15 -48 -4 -39
-49 -90 -54 -132 -13 -25 26 -29 37 -29 86 0 50 4 60 30 87 27 26 36 30 68 25
20 -4 45 -16 54 -27 17 -21 18 -21 48 -4 16 10 30 23 30 29 0 14 -36 48 -67
64 -29 15 -121 13 -158 -3z"/>
<path d="M2156 2357 c-59 -33 -81 -77 -81 -162 0 -121 61 -185 178 -185 61 0
87 9 125 43 29 26 28 41 -3 61 -25 16 -27 16 -56 -8 -32 -28 -62 -32 -103 -16
-23 8 -56 55 -56 80 0 6 44 10 125 10 l125 0 0 48 c0 96 -58 152 -160 152 -38
0 -67 -7 -94 -23z"/>
<path d="M3070 2373 c-38 -15 -74 -50 -91 -87 -38 -85 -14 -200 52 -247 29
-20 46 -24 111 -24 83 0 110 12 152 69 17 23 21 42 21 111 0 69 -4 88 -21 111
-39 53 -70 68 -142 71 -37 1 -74 0 -82 -4z m135 -94 c30 -30 29 -140 -3 -171
-31 -31 -97 -31 -122 0 -42 51 -30 163 20 189 31 17 79 9 105 -18z"/>
<path d="M3950 2373 c-97 -37 -140 -171 -87 -273 31 -61 65 -83 137 -88 74 -5
100 1 139 34 38 31 39 47 5 69 -25 16 -27 16 -48 -4 -50 -47 -133 -31 -155 30
-6 18 -11 34 -11 35 0 2 56 4 125 4 l125 0 0 48 c0 98 -58 153 -160 151 -30 0
-62 -3 -70 -6z"/>
</g>
</svg>
